<?xml version="1.0" standalone="no"?>
<!DOCTYPE svg PUBLIC "-//W3C//DTD SVG 20010904//EN"
 "http://www.w3.org/TR/2001/REC-SVG-20010904/DTD/svg10.dtd">
<svg version="1.0" xmlns="http://www.w3.org/2000/svg"
 width="260.000000pt" height="260.000000pt" viewBox="0 0 260.000000 260.000000"
 preserveAspectRatio="xMidYMid meet">
<metadata>
Created by potrace 1.11, written by Peter Selinger 2001-2013
</metadata>
<g transform="translate(0.000000,260.000000) scale(0.100000,-0.100000)"
fill="#000000" stroke="none">
<path d="M206 2115 c-21 -7 -43 -18 -49 -24 -9 -9 -17 -235 -17 -491 0 -14 -1
-113 -1 -220 -6 -715 -1 -946 18 -965 35 -36 278 -50 523 -31 63 5 130 9 148
8 25 -1 35 4 41 21 16 40 23 140 27 371 2 126 8 234 12 238 6 6 27 -32 52 -89
45 -105 121 -252 177 -346 l34 -57 70 -1 c38 -1 84 -1 102 -2 56 0 86 14 129
62 43 49 126 213 172 343 27 75 49 108 60 90 2 -4 7 -127 11 -273 8 -371 5
-356 78 -357 28 -1 99 -5 157 -9 228 -17 457 -4 497 29 9 8 12 44 8 137 -8
233 -7 395 1 501 11 125 11 989 0 1043 l-7 37 -404 0 -403 0 -28 -32 c-15 -18
-45 -71 -67 -118 -22 -47 -52 -112 -67 -145 -15 -33 -47 -100 -70 -150 -23
-49 -55 -118 -71 -152 -41 -92 -67 -86 -113 27 -32 79 -34 84 -56 135 -12 28
-43 107 -70 176 -58 151 -79 195 -114 232 l-25 27 -358 0 c-274 -1 -367 -5
-397 -15z"/>
</g>
</svg>
